<svg id="Layer_1" data-name="Layer 1" xmlns="http://www.w3.org/2000/svg" viewBox="0 0 571.87 799"><defs><style>.cls-1{fill:red;}</style></defs><title>ekv-logo</title><path class="cls-1" d="M750.55,234.22q-38.91,106.74-70,216.1L626.35,312.49c-2.72-6.94-6.49-14.8-13.76-16.4-9.57-2.09-17,7.9-21.71,16.51l-79,145.66L461.91,121.62c-1.24-8.39-5.14-19.11-13.62-18.6-8.89.53-11.08,12.54-10.67,21.44l18,393.62C457.44,557.62,459,598.8,443,635s-55,65.57-93.6,56.77c-29.52-6.74-51.07-34.16-58.4-63.54s-2.73-60.42,4.58-89.81c3.92-15.76,8.88-31.84,19.47-44.15s28.17-19.95,43.46-14.49c21.68,7.75,27.74,35.94,24.65,58.75-1.24,9.15-3.81,18.88-11,24.69s-20.09,4.88-23.53-3.69c-5.65-14.09,17.44-24.31,18.61-39.45,1-13.11-16.48-21.27-28.63-16.26s-19.14,17.68-24.14,29.84c-7.4,18-12.62,37.36-11.19,56.77s10.29,38.94,26.38,49.89c28,19.08,69.1,5.48,89.63-21.5S444.19,556,443.8,522.09c-.53-45.63-12-97-51.19-120.45-25.85-15.48-59.65-14.78-86.7-1.51-63.28,31.05-81.72,116.21-84,180.3-1.4,39.22,6.64,79.65,28.42,112.31S308.8,749.2,348.05,750c22.56.43,44.65-8.13,62.45-21.71,20.38-15.55,30.69-35.81,41.49-58.43,1.7-3.56,3.95-7.56,7.84-8.23,3.27-.57,6.51,1.61,8.22,4.45,2.3,3.82,3,9.19,3.49,13.58q10.5,95.08,21,190.17c1.65,14.93,9.12,34.6,23.92,32,12.92-2.27,15.56-19.44,15.13-32.56q-4.12-127.91-8.27-255.82L685.49,766.66c7.85,7.42,21.88,14.34,27.67,5.22,3.94-6.21-.53-14.16-4.88-20.09L602.46,607.52C583,580.94,563,553,552.85,521.77,548.3,507.77,539,481,550,459c5.88-11.77,33-64,33-64,10,18,22.55,73,26.17,86.15q13.3,48.12,30.37,95.1c5.8,16,39.69,78.57,50.63,33.19l102.34-425c1.4-5.81,2.29-13.14-2.53-16.67-7.51-5.49-16.31,5-19.66,13.71Q760.2,207.76,750.55,234.22Z" transform="translate(-221.75 -103)"/></svg>